<?xml version="1.0" encoding="iso-8859-1"?>
<!-- Uploaded to: SVG Repo, www.svgrepo.com, Generator: SVG Repo Mixer Tools -->
<svg height="800px" width="800px" version="1.1" id="Layer_1" xmlns="http://www.w3.org/2000/svg" xmlns:xlink="http://www.w3.org/1999/xlink" 
	 viewBox="0 0 512 512" xml:space="preserve">
<path style="fill:#CCA400;" d="M446.667,131.521v-19.266c0-6.72-5.447-12.168-12.168-12.168H128.254v79.537h318.413V131.521z"/>
<path style="fill:#FFE477;" d="M111.018,85.893h51.378c7.018,0,13.414,4.025,16.451,10.352l14.396,29.99
	c3.037,6.327,9.433,10.352,16.451,10.352h276.454c10.078,0,18.248,8.17,18.248,18.248v253.025c0,10.078-8.17,18.248-18.248,18.248
	H25.853c-10.078,0-18.248-8.17-18.248-18.248V104.142c0-10.078,8.17-18.248,18.248-18.248h85.166V85.893z"/>
<g style="opacity:0.26;">
	<path style="fill:#CCA400;" d="M485.385,136.587h-27.054v225.971c0,10.078-8.17,18.248-18.249,18.248H6.842v27.054
		c0,10.078,8.17,18.248,18.249,18.248h460.296c10.078,0,18.248-8.17,18.248-18.248V154.835
		C503.633,144.756,495.463,136.587,485.385,136.587z"/>
	<path style="fill:#CCA400;" d="M163.629,91.285h10.943c-3.369-3.389-7.996-5.392-12.938-5.392h-10.943
		C154.06,89.284,158.687,91.285,163.629,91.285z"/>
</g>
<polygon style="fill:#CCA400;" points="257.736,227.693 312.501,227.693 312.501,251.399 358.104,235.112 358.104,318.181 
	312.501,301.895 312.501,325.601 175.446,325.601 175.446,227.693 203.327,227.693 "/>
<path d="M203.327,235.297c4.2,0,7.604-3.404,7.604-7.604s-3.404-7.604-7.604-7.604h-27.881c-4.2,0-7.604,3.404-7.604,7.604v97.908
	c0,4.2,3.404,7.604,7.604,7.604h137.057c4.2,0,7.604-3.404,7.604-7.604v-12.916l35.441,12.657c2.329,0.83,4.916,0.478,6.938-0.946
	c2.022-1.424,3.224-3.742,3.224-6.216v-83.069c0-2.473-1.202-4.792-3.224-6.216c-2.02-1.423-4.608-1.777-6.938-0.946l-35.441,12.657
	v-12.916c0-4.2-3.404-7.604-7.604-7.604h-54.766c-4.2,0-7.604,3.404-7.604,7.604c0,4.2,3.404,7.604,7.604,7.604h47.162v16.102
	c0,2.473,1.202,4.792,3.224,6.216c2.02,1.423,4.608,1.777,6.938,0.946l35.441-12.657v61.488l-35.441-12.657
	c-2.329-0.831-4.918-0.478-6.938,0.946c-2.022,1.424-3.224,3.742-3.224,6.216v16.102H183.05v-82.7L203.327,235.297L203.327,235.297z
	"/>
<path d="M486.147,128.983h-31.875v-16.727c0-10.903-8.869-19.772-19.772-19.772H280.334c-4.2,0-7.604,3.404-7.604,7.604
	c0,4.2,3.404,7.604,7.604,7.604H434.5c2.516,0,4.564,2.048,4.564,4.564v16.727H209.693c-4.069,0-7.835-2.37-9.595-6.038
	l-14.396-29.99c-4.276-8.909-13.424-14.666-23.306-14.666h-51.378c-4.2,0-7.604,3.404-7.604,7.604c0,4.2,3.404,7.604,7.604,7.604
	h51.378c4.069,0,7.835,2.37,9.595,6.039l14.396,29.989c4.277,8.909,13.424,14.666,23.306,14.666h276.454
	c5.869,0,10.645,4.774,10.645,10.644v253.025c0,5.869-4.775,10.644-10.645,10.644H25.852c-5.869,0-10.644-4.774-10.644-10.644
	V104.141c0-5.869,4.774-10.644,10.644-10.644c4.2,0,7.604-3.404,7.604-7.604c0-4.2-3.404-7.604-7.604-7.604
	C11.597,78.289,0,89.887,0,104.141v303.718c0,14.255,11.597,25.852,25.852,25.852h460.296c14.256,0,25.853-11.597,25.853-25.852
	V154.834C512,140.58,500.403,128.983,486.147,128.983z"/>
<path d="M47.145,231.599c4.2,0,7.604-3.404,7.604-7.604v-88.742c0-4.2-3.404-7.604-7.604-7.604s-7.604,3.404-7.604,7.604v88.742
	C39.541,228.196,42.944,231.599,47.145,231.599z"/>
</svg>